<?xml version="1.0" encoding="utf-8"?>
<!-- Generator: Adobe Illustrator 24.0.2, SVG Export Plug-In . SVG Version: 6.00 Build 0)  -->
<svg version="1.1" id="Capa_1" xmlns="http://www.w3.org/2000/svg" xmlns:xlink="http://www.w3.org/1999/xlink" x="0px" y="0px"
	 viewBox="0 0 645.1 1024" style="enable-background:new 0 0 645.1 1024;" xml:space="preserve">
<style type="text/css">
	.st0{fill:#42A49E;}
	.st1{fill-rule:evenodd;clip-rule:evenodd;fill:#42A49E;}
</style>
<title>SortiumLogo</title>
<path class="st0" d="M0,1023L0,1023l0.5,1h138.3l22.8-20.5l0,0l22.8-24.1l0,0l9-6.8l0,0l9.8-6.8l0,0l10.5-6.9l0,0l11.1-6.9l0,0
	l17.3-10.1l0,0l17.4-10.1l0,0l19.1-10.4l0,0l14.6-7.9l0,0l14.4-7.5l0,0l15.3-8.3l0,0l142.2-84.9l0,0l22.9-17l12.4-9.7l0,0l12.5-10.4
	l0,0l15.7-14.2l0,0l17-16.7l0,0l15.2-16.6l0,0l14.3-17.4l0,0l13.3-18.3l0,0l12.2-19.1l0,0l10.9-20l0,0l9.5-20.9l0,0l14.5-44.7l0,0
	l7.7-48.7l0,0l1-25.9l0,0l-0.7-22.2l0,0l-2.1-21.1l0,0l-3.4-20.1l0,0l-4.6-19.1l0,0l-5.8-18.1l0,0l-6.9-17.2l0,0l-8-16.3l-0.5-1l0,0
	l-8.9-15.4l0,0l-9.8-14.6l0,0L582.7,334l0,0l-11.4-13.1l0,0l-12.1-12.5l0,0l-13.6-13.8l0,0l-36-28.1l0,0l-14.8,7.7l0,0l-139.2,68
	l0,0l0.5,1l0,0l17.3,9l0,0l19,10.4l0,0l14.1,8.7l0,0L418,379l0,0l44.1,46.5l0,0l3,14.6l0,0l1.1,25.9h-7.5l-14.2,0l0,0l-14.2,0l0,0
	l-14.2,0.1l0,0l-14.2,0.1l0,0l-14.2,0.1l-14.2,0.1l0,0l-14.2,0.1h-14.2h-14.2h-53.7H264h-13.2h-13.2l0,0h-13.2l0,0l-13.2,0l0,0
	l-13.2,0.1l0,0l-13.2,0.1l0,0l-13.2,0.1l0,0l-12.3,0.1l0,0l5.1-14.2l0,0l7-14l0,0l8.6-13.3l0,0l10.2-12.5l0,0l11.7-11.8l0,0
	l13.2-11.3l0,0l14.6-10.8l0,0l16-10.5l0,0l17.4-10.2l0,0l18.7-10.1l0,0l1.7-0.8l18.4-9.3l0,0l25.9-12.5l0,0l20.2-9.9l0,0l16.4-8.1
	l18.6-9.1l0,0l19.7-9.7l19.7-9.7l0,0l18.6-9.1l16.4-8.1l0,0l19.1-9.4l0,0l27.3-16.2l0,0l20.8-14.3l0,0l19.9-15.4l0,0l18.8-16.6l0,0
	l17.3-17.9l0,0l15.7-19.3l0,0l14-20.8l0,0l11.9-22.4l0,0l9.6-24.2l0,0l7.1-26.1l0,0l4.4-28.1l0,0L645.1,1l0,0l-0.5-1l0,0L519,1.3
	l-25.3,0.3l0,0L492.4,21l0,0l-1.3,6.1l-2.5,11.7l0,0l-6.3,16.4l0,0l-8.8,15.2l0,0l-11.1,14.1l0,0l-13.4,13.3l0,0l-15.7,12.6l0,0
	l-18,12.2l0,0l-20.1,11.9l0,0L373,146.3l0,0l-24.3,11.9l0,0l-31.4,14.7l-19.9,9.9l-16.4,8.2l-18.6,9.3l0,0l-19.7,9.8l0,0l-19.7,9.8
	l-18.6,9.3l-16.4,8.2l0,0l-19.9,9.9l0,0l-26.8,16.5l0,0l-21,15.1l0,0l-20,16.2l0,0l-18.8,17.5l0,0l-17.3,18.9l0,0l-15.7,20.4l0,0
	l-13.9,22l0,0L23,397.5l0,0l-9.5,25.6l0,0l-7.1,27.6l0,0L2,480.6l0,0l-1.5,32l0,0l0.7,21.6l0,0l5.3,40.9l0,0l10.1,38l0,0L31,648.4
	l0,0l0.5,1l0,0l8.7,16.7l0,0l9.6,16.1l0,0l10.4,15.5l0,0l11.2,14.9l0,0l19.2,22.3l0,0l18.5,19.3l0,0l12.8,11.9l0,0l23.6,19.9l0,0
	l8.9,7l0,0l11.8-6.1l0,0L294.7,715l0,0l-0.5-1l0,0l-23.9-16l0,0l-17.7-13l0,0l-18.5-14.7l0,0l-69.3-83.6l0,0l122.6-1.1l0,0h17.3l0,0
	H322l0,0h17.3l0,0l17.3-0.1l0,0l17.3-0.1l17.3-0.1l17.3-0.1H426h17.3h17.3l0,0l0.9,0.9l0,0l0,0l6.1,8.1l2.7,3.6l0,0l-13.4,21.9l0,0
	l-6.3,8.5l0,0l-6.8,8.3l0,0l-7.3,8.1l0,0l-15.8,15.8l0,0l-8.5,7.7l0,0l-8.9,7.6l0,0l-9.3,7.5l0,0l-45.7,32l0,0L321.8,732l0,0
	l-22.3,12.4l-49.1,27.2l0,0l-17.7,9.8l-16.7,9.3l0,0l-14.7,8.2l-15.6,8.7l0,0l-16.3,9.2l0,0l-20.6,12.1l0,0l-16.7,10.4l0,0l-20.6,14
	l0,0l-21.4,15.4l0,0l-14,11.3l0,0L63,891.7l0,0l-12.2,12.2l0,0l-11.1,12.7l0,0l-10,13.2l0,0L21,943.7l0,0l-7.3,14.5l0,0l-5.9,15.1
	l0,0l-4.3,15.8l0,0l-2.7,16.6l0,0L0,1023z"/>
<path class="st1" d="M317.4,172.8"/>
<path class="st1" d="M488,795.7"/>
<path class="st0" d="M0.6,2.6L0.6,2.6l0.7,21l0,0l2.1,19.9l0,0l3.4,18.9l0,0l4.7,18l0,0l5.9,17.1l0,0l7,16.2l0,0l0.5,1l0,0l8,15.3
	l0,0l9,14.5l0,0l9.9,13.8l0,0l10.8,13l0,0l11.5,12.4l0,0L94,201.9l0,0l39.9,23l0,0l4.6,0.4l0,0L285,153l0,0l-1.9-1.7l0,0l-16.2-8
	l0,0l-12.3-6.2l0,0l-31.1-18.5l0,0l-10.9-7.4l-0.4-0.2l0,0l-0.5-0.4l-9.8-7.4l0,0l-9.4-8.1l0,0l-8.5-8.4l0,0l-7.5-8.7l0,0l-6.6-9.2
	l0,0l-5.4-9.3l0,0l-4.3-9.5l0,0l-3.6-10.7l0,0L154,28.2l0,0l-1.6-12l0,0l-0.5-12.7l0,0l-0.5-1L0.6,2.6L0.6,2.6z"/>
<path class="st0" d="M351.5,911.5L351.5,911.5l0.5,1l0,0l20.4,11.1l0,0l26.9,14.8l0,0l36,21.6l0,0l34.8,28.8l0,0l36,33.6h137.9
	l-0.4-11.9l0,0l-1.2-11.5l0,0l-2-11.2l0,0l-2.8-10.8l0,0l-3.5-10.5l0,0l-4.2-10.2l0,0l-4.9-9.8l-0.5-1l0,0l-5.5-9.6l0,0l-6.2-9.3
	l0,0l-6.7-9l0,0l-7.3-8.8l0,0l-14.5-15l0,0L549,864.4l0,0l-55.2-37.2l0,0l-14.3,8.2l0,0L351.5,911.5z"/>
</svg>
